<mxfile host="app.diagrams.net" agent="Mozilla/5.0 (X11; Linux x86_64) AppleWebKit/537.36 (KHTML, like Gecko) Chrome/130.0.0.0 Safari/537.36" version="24.8.3">
  <diagram name="Page-1" id="ZS14Qa4koRhOwApmhoFF">
    <mxGraphModel grid="1" page="1" gridSize="10" guides="1" tooltips="1" connect="1" arrows="1" fold="1" pageScale="1" pageWidth="850" pageHeight="1100" background="#ffffff" math="0" shadow="0">
      <root>
        <mxCell id="0" />
        <mxCell id="1" parent="0" />
        <mxCell id="LjeAKtY_7-O4ojsEEb1V-7" value="" style="group" connectable="0" vertex="1" parent="1">
          <mxGeometry x="1430" y="-1090" width="1112" height="1112" as="geometry" />
        </mxCell>
        <mxCell id="Rsego-TjWa7oMH-lZUst-2" value="" style="whiteSpace=wrap;html=1;aspect=fixed;fillColor=#fad7ac;strokeColor=#b46504;strokeWidth=2;" vertex="1" parent="LjeAKtY_7-O4ojsEEb1V-7">
          <mxGeometry width="1112" height="1112" as="geometry" />
        </mxCell>
        <mxCell id="Rsego-TjWa7oMH-lZUst-1" value="&lt;p style=&quot;line-height: 60%;&quot;&gt;&lt;/p&gt;&lt;h1 style=&quot;margin-top: 0px; line-height: 75%;&quot;&gt;&lt;font style=&quot;font-size: 12px;&quot; color=&quot;#000000&quot; face=&quot;Segoe UI, Segoe UI Web (West European), -apple-system, BlinkMacSystemFont, Roboto, Helvetica Neue, sans-serif&quot;&gt;&lt;span style=&quot;font-weight: 400;&quot;&gt;Zadání:&lt;/span&gt;&lt;/font&gt;&lt;/h1&gt;&lt;h1 style=&quot;margin-top: 0px; line-height: 75%;&quot;&gt;&lt;font style=&quot;font-size: 12px;&quot; color=&quot;#000000&quot; face=&quot;Segoe UI, Segoe UI Web (West European), -apple-system, BlinkMacSystemFont, Roboto, Helvetica Neue, sans-serif&quot;&gt;&lt;span style=&quot;font-weight: 400;&quot;&gt;Navrhněte systém pro správu fitness centra, který umožní zákazníkům rezervovat si cvičební lekce, spravovat členství a sledovat osobní tréninkové plány. Trenéři budou mít možnost vytvářet a spravovat tréninkové plány pro jednotlivé členy. Recepční bude spravovat registrace členů a administrátor bude sledovat statistiky o využití služeb fitness centra.&lt;/span&gt;&lt;/font&gt;&lt;/h1&gt;&lt;h3 style=&quot;margin-top: 0px; line-height: 75%;&quot;&gt;&lt;font style=&quot;font-size: 12px;&quot; color=&quot;#000000&quot; face=&quot;Segoe UI, Segoe UI Web (West European), -apple-system, BlinkMacSystemFont, Roboto, Helvetica Neue, sans-serif&quot;&gt;&lt;span style=&quot;font-weight: 400;&quot;&gt;Aktéři:&lt;/span&gt;&lt;/font&gt;&lt;/h3&gt;&lt;h1 style=&quot;margin-top: 0px; line-height: 75%;&quot;&gt;&lt;ul&gt;&lt;li&gt;&lt;font style=&quot;font-size: 12px;&quot; color=&quot;#000000&quot; face=&quot;Segoe UI, Segoe UI Web (West European), -apple-system, BlinkMacSystemFont, Roboto, Helvetica Neue, sans-serif&quot;&gt;&lt;span style=&quot;font-weight: 400;&quot;&gt;Člen – může si rezervovat lekce, upravovat svůj tréninkový plán a spravovat své členství.&lt;/span&gt;&lt;/font&gt;&lt;/li&gt;&lt;li&gt;&lt;font style=&quot;font-size: 12px;&quot; color=&quot;#000000&quot; face=&quot;Segoe UI, Segoe UI Web (West European), -apple-system, BlinkMacSystemFont, Roboto, Helvetica Neue, sans-serif&quot;&gt;&lt;span style=&quot;font-weight: 400;&quot;&gt;Trenér – vytváří a spravuje tréninkové plány pro členy.&lt;/span&gt;&lt;/font&gt;&lt;/li&gt;&lt;li&gt;&lt;font style=&quot;font-size: 12px;&quot; color=&quot;#000000&quot; face=&quot;Segoe UI, Segoe UI Web (West European), -apple-system, BlinkMacSystemFont, Roboto, Helvetica Neue, sans-serif&quot;&gt;&lt;span style=&quot;font-weight: 400;&quot;&gt;Recepční – spravuje registrace členů a kontroluje přístup.&lt;/span&gt;&lt;/font&gt;&lt;/li&gt;&lt;li&gt;&lt;font style=&quot;font-size: 12px;&quot; color=&quot;#000000&quot; face=&quot;Segoe UI, Segoe UI Web (West European), -apple-system, BlinkMacSystemFont, Roboto, Helvetica Neue, sans-serif&quot;&gt;&lt;span style=&quot;font-weight: 400;&quot;&gt;Administrátor – generuje statistiky o využití služeb a spravuje celý systém.&lt;/span&gt;&lt;/font&gt;&lt;/li&gt;&lt;/ul&gt;&lt;/h1&gt;&lt;h1 style=&quot;margin-top: 0px; line-height: 75%;&quot;&gt;&lt;font style=&quot;font-size: 12px;&quot; color=&quot;#000000&quot; face=&quot;Segoe UI, Segoe UI Web (West European), -apple-system, BlinkMacSystemFont, Roboto, Helvetica Neue, sans-serif&quot;&gt;&lt;span style=&quot;font-weight: 400;&quot;&gt;Use Case:&lt;/span&gt;&lt;/font&gt;&lt;/h1&gt;&lt;h1 style=&quot;margin-top: 0px; line-height: 75%;&quot;&gt;&lt;ul&gt;&lt;li&gt;&lt;font style=&quot;font-size: 12px;&quot; color=&quot;#000000&quot; face=&quot;Segoe UI, Segoe UI Web (West European), -apple-system, BlinkMacSystemFont, Roboto, Helvetica Neue, sans-serif&quot;&gt;&lt;span style=&quot;font-weight: 400;&quot;&gt;Registrace nového člena – recepční zaregistruje nového člena do systému.&lt;/span&gt;&lt;/font&gt;&lt;/li&gt;&lt;li&gt;&lt;font style=&quot;font-size: 12px;&quot; color=&quot;#000000&quot; face=&quot;Segoe UI, Segoe UI Web (West European), -apple-system, BlinkMacSystemFont, Roboto, Helvetica Neue, sans-serif&quot;&gt;&lt;span style=&quot;font-weight: 400;&quot;&gt;Rezervace lekce – člen si může rezervovat lekci (např. jógu, spinning, atd.).&lt;/span&gt;&lt;/font&gt;&lt;/li&gt;&lt;li&gt;&lt;font style=&quot;font-size: 12px;&quot; color=&quot;#000000&quot; face=&quot;Segoe UI, Segoe UI Web (West European), -apple-system, BlinkMacSystemFont, Roboto, Helvetica Neue, sans-serif&quot;&gt;&lt;span style=&quot;font-weight: 400;&quot;&gt;Správa tréninkového plánu – trenér vytváří a upravuje tréninkový plán pro člena.&lt;/span&gt;&lt;/font&gt;&lt;/li&gt;&lt;li&gt;&lt;font style=&quot;font-size: 12px;&quot; color=&quot;#000000&quot; face=&quot;Segoe UI, Segoe UI Web (West European), -apple-system, BlinkMacSystemFont, Roboto, Helvetica Neue, sans-serif&quot;&gt;&lt;span style=&quot;font-weight: 400;&quot;&gt;Check-in na lekci – člen se hlásí na rezervovanou lekci při příchodu do fitness centra.&lt;/span&gt;&lt;/font&gt;&lt;/li&gt;&lt;li&gt;&lt;font style=&quot;font-size: 12px;&quot; color=&quot;#000000&quot; face=&quot;Segoe UI, Segoe UI Web (West European), -apple-system, BlinkMacSystemFont, Roboto, Helvetica Neue, sans-serif&quot;&gt;&lt;span style=&quot;font-weight: 400;&quot;&gt;Platba za členství – člen platí za své členství.&lt;/span&gt;&lt;/font&gt;&lt;/li&gt;&lt;li&gt;&lt;font style=&quot;font-size: 12px;&quot; color=&quot;#000000&quot; face=&quot;Segoe UI, Segoe UI Web (West European), -apple-system, BlinkMacSystemFont, Roboto, Helvetica Neue, sans-serif&quot;&gt;&lt;span style=&quot;font-weight: 400;&quot;&gt;Generování reportů – administrátor generuje reporty o využití služeb.&lt;/span&gt;&lt;/font&gt;&lt;/li&gt;&lt;li&gt;&lt;font style=&quot;font-size: 12px;&quot; color=&quot;#000000&quot; face=&quot;Segoe UI, Segoe UI Web (West European), -apple-system, BlinkMacSystemFont, Roboto, Helvetica Neue, sans-serif&quot;&gt;&lt;span style=&quot;font-weight: 400;&quot;&gt;Zobrazení rozvrhu lekcí – člen zobrazuje dostupné lekce.&lt;/span&gt;&lt;/font&gt;&lt;/li&gt;&lt;li&gt;&lt;font style=&quot;font-size: 12px;&quot; color=&quot;#000000&quot; face=&quot;Segoe UI, Segoe UI Web (West European), -apple-system, BlinkMacSystemFont, Roboto, Helvetica Neue, sans-serif&quot;&gt;&lt;span style=&quot;font-weight: 400;&quot;&gt;Změna členství – člen může měnit své členství (např. z měsíčního na roční).&lt;/span&gt;&lt;/font&gt;&lt;/li&gt;&lt;/ul&gt;&lt;/h1&gt;&lt;h1 style=&quot;margin-top: 0px; line-height: 75%;&quot;&gt;&lt;font style=&quot;font-size: 12px;&quot; color=&quot;#000000&quot; face=&quot;Segoe UI, Segoe UI Web (West European), -apple-system, BlinkMacSystemFont, Roboto, Helvetica Neue, sans-serif&quot;&gt;&lt;span style=&quot;font-weight: 400;&quot;&gt;Doménový model:&lt;/span&gt;&lt;/font&gt;&lt;/h1&gt;&lt;h1 style=&quot;margin-top: 0px; line-height: 75%;&quot;&gt;&lt;ul&gt;&lt;li&gt;&lt;font style=&quot;font-size: 12px;&quot; color=&quot;#000000&quot; face=&quot;Segoe UI, Segoe UI Web (West European), -apple-system, BlinkMacSystemFont, Roboto, Helvetica Neue, sans-serif&quot;&gt;&lt;span style=&quot;font-weight: 400;&quot;&gt;Entity:&amp;nbsp;&lt;/span&gt;&lt;/font&gt;&lt;/li&gt;&lt;li&gt;&lt;font style=&quot;font-size: 12px;&quot; color=&quot;#000000&quot; face=&quot;Segoe UI, Segoe UI Web (West European), -apple-system, BlinkMacSystemFont, Roboto, Helvetica Neue, sans-serif&quot;&gt;&lt;span style=&quot;font-weight: 400;&quot;&gt;Člen&lt;/span&gt;&lt;/font&gt;&lt;/li&gt;&lt;li&gt;&lt;font style=&quot;font-size: 12px;&quot; color=&quot;#000000&quot; face=&quot;Segoe UI, Segoe UI Web (West European), -apple-system, BlinkMacSystemFont, Roboto, Helvetica Neue, sans-serif&quot;&gt;&lt;span style=&quot;font-weight: 400;&quot;&gt;Trenér&lt;/span&gt;&lt;/font&gt;&lt;/li&gt;&lt;li&gt;&lt;font style=&quot;font-size: 12px;&quot; color=&quot;#000000&quot; face=&quot;Segoe UI, Segoe UI Web (West European), -apple-system, BlinkMacSystemFont, Roboto, Helvetica Neue, sans-serif&quot;&gt;&lt;span style=&quot;font-weight: 400;&quot;&gt;Lekce&lt;/span&gt;&lt;/font&gt;&lt;/li&gt;&lt;li&gt;&lt;font style=&quot;font-size: 12px;&quot; color=&quot;#000000&quot; face=&quot;Segoe UI, Segoe UI Web (West European), -apple-system, BlinkMacSystemFont, Roboto, Helvetica Neue, sans-serif&quot;&gt;&lt;span style=&quot;font-weight: 400;&quot;&gt;Tréninkový plán&lt;/span&gt;&lt;/font&gt;&lt;/li&gt;&lt;li&gt;&lt;font style=&quot;font-size: 12px;&quot; color=&quot;#000000&quot; face=&quot;Segoe UI, Segoe UI Web (West European), -apple-system, BlinkMacSystemFont, Roboto, Helvetica Neue, sans-serif&quot;&gt;&lt;span style=&quot;font-weight: 400;&quot;&gt;Rezervace&lt;/span&gt;&lt;/font&gt;&lt;/li&gt;&lt;li&gt;&lt;font style=&quot;font-size: 12px;&quot; color=&quot;#000000&quot; face=&quot;Segoe UI, Segoe UI Web (West European), -apple-system, BlinkMacSystemFont, Roboto, Helvetica Neue, sans-serif&quot;&gt;&lt;span style=&quot;font-weight: 400;&quot;&gt;Členství&lt;/span&gt;&lt;/font&gt;&lt;/li&gt;&lt;li&gt;&lt;font style=&quot;font-size: 12px;&quot; color=&quot;#000000&quot; face=&quot;Segoe UI, Segoe UI Web (West European), -apple-system, BlinkMacSystemFont, Roboto, Helvetica Neue, sans-serif&quot;&gt;&lt;span style=&quot;font-weight: 400;&quot;&gt;Platba&lt;/span&gt;&lt;/font&gt;&lt;/li&gt;&lt;li&gt;&lt;font style=&quot;font-size: 12px;&quot; color=&quot;#000000&quot; face=&quot;Segoe UI, Segoe UI Web (West European), -apple-system, BlinkMacSystemFont, Roboto, Helvetica Neue, sans-serif&quot;&gt;&lt;span style=&quot;font-weight: 400;&quot;&gt;Administrátor&lt;/span&gt;&lt;/font&gt;&lt;/li&gt;&lt;li&gt;&lt;font style=&quot;font-size: 12px;&quot; color=&quot;#000000&quot; face=&quot;Segoe UI, Segoe UI Web (West European), -apple-system, BlinkMacSystemFont, Roboto, Helvetica Neue, sans-serif&quot;&gt;&lt;span style=&quot;font-weight: 400;&quot;&gt;Recepční&lt;/span&gt;&lt;/font&gt;&lt;/li&gt;&lt;/ul&gt;&lt;/h1&gt;&lt;h1 style=&quot;margin-top: 0px; line-height: 75%;&quot;&gt;&lt;font style=&quot;font-size: 12px;&quot; color=&quot;#000000&quot; face=&quot;Segoe UI, Segoe UI Web (West European), -apple-system, BlinkMacSystemFont, Roboto, Helvetica Neue, sans-serif&quot;&gt;&lt;span style=&quot;font-weight: 400;&quot;&gt;Vztahy:&lt;/span&gt;&lt;/font&gt;&lt;/h1&gt;&lt;h1 style=&quot;margin-top: 0px; line-height: 75%;&quot;&gt;&lt;ul&gt;&lt;li&gt;&lt;font style=&quot;font-size: 12px;&quot; color=&quot;#000000&quot; face=&quot;Segoe UI, Segoe UI Web (West European), -apple-system, BlinkMacSystemFont, Roboto, Helvetica Neue, sans-serif&quot;&gt;&lt;span style=&quot;font-weight: 400;&quot;&gt;Člen má více rezervací&amp;nbsp;&lt;/span&gt;&lt;/font&gt;&lt;/li&gt;&lt;li&gt;&lt;font style=&quot;font-size: 12px;&quot; color=&quot;#000000&quot; face=&quot;Segoe UI, Segoe UI Web (West European), -apple-system, BlinkMacSystemFont, Roboto, Helvetica Neue, sans-serif&quot;&gt;&lt;span style=&quot;font-weight: 400;&quot;&gt;Trenér má více tréninkových plánů&amp;nbsp;&lt;/span&gt;&lt;/font&gt;&lt;/li&gt;&lt;li&gt;&lt;font style=&quot;font-size: 12px;&quot; color=&quot;#000000&quot; face=&quot;Segoe UI, Segoe UI Web (West European), -apple-system, BlinkMacSystemFont, Roboto, Helvetica Neue, sans-serif&quot;&gt;&lt;span style=&quot;font-weight: 400;&quot;&gt;Lekce má více rezervací&amp;nbsp;&lt;/span&gt;&lt;/font&gt;&lt;/li&gt;&lt;/ul&gt;&lt;/h1&gt;&lt;h1 style=&quot;margin-top: 0px; line-height: 75%;&quot;&gt;&lt;font style=&quot;font-size: 12px;&quot; color=&quot;#000000&quot; face=&quot;Segoe UI, Segoe UI Web (West European), -apple-system, BlinkMacSystemFont, Roboto, Helvetica Neue, sans-serif&quot;&gt;&lt;span style=&quot;font-weight: 400;&quot;&gt;Třídní diagram:&lt;/span&gt;&lt;/font&gt;&lt;/h1&gt;&lt;h1 style=&quot;margin-top: 0px; line-height: 75%;&quot;&gt;&lt;font style=&quot;font-size: 12px;&quot; color=&quot;#000000&quot; face=&quot;Segoe UI, Segoe UI Web (West European), -apple-system, BlinkMacSystemFont, Roboto, Helvetica Neue, sans-serif&quot;&gt;&lt;span style=&quot;font-weight: 400;&quot;&gt;Třídy: Člen, Trenér, Lekce, Rezervace, Tréninkový plán, Platba, Členství, Administrátor, Recepční.&lt;/span&gt;&lt;/font&gt;&lt;/h1&gt;&lt;h1 style=&quot;margin-top: 0px; line-height: 75%;&quot;&gt;&lt;font style=&quot;font-size: 12px;&quot; color=&quot;#000000&quot; face=&quot;Segoe UI, Segoe UI Web (West European), -apple-system, BlinkMacSystemFont, Roboto, Helvetica Neue, sans-serif&quot;&gt;&lt;span style=&quot;font-weight: 400;&quot;&gt;Vztahy: Agregace mezi Členem a Členstvím, Asociace mezi Členem a Rezervací, Kompozice mezi Trenérem a Tréninkovým plánem.&lt;/span&gt;&lt;/font&gt;&lt;/h1&gt;&lt;p&gt;&lt;/p&gt;" style="text;html=1;whiteSpace=wrap;overflow=hidden;rounded=0;fontColor=#FFFFFF;labelBackgroundColor=none;" vertex="1" parent="LjeAKtY_7-O4ojsEEb1V-7">
          <mxGeometry x="24" y="26" width="834" height="1076" as="geometry" />
        </mxCell>
        <mxCell id="LjeAKtY_7-O4ojsEEb1V-8" value="Member" style="shape=umlActor;verticalLabelPosition=bottom;verticalAlign=top;html=1;outlineConnect=0;" vertex="1" parent="1">
          <mxGeometry x="534" y="-1648" width="30" height="60" as="geometry" />
        </mxCell>
        <mxCell id="ePXV671IeLaIovOnWjoS-5" value="Trainer" style="shape=umlActor;verticalLabelPosition=bottom;verticalAlign=top;html=1;outlineConnect=0;" vertex="1" parent="1">
          <mxGeometry x="536" y="-1440" width="30" height="60" as="geometry" />
        </mxCell>
        <mxCell id="LjeAKtY_7-O4ojsEEb1V-9" value="Receptionist" style="shape=umlActor;verticalLabelPosition=bottom;verticalAlign=top;html=1;outlineConnect=0;" vertex="1" parent="1">
          <mxGeometry x="539" y="-1336" width="30" height="60" as="geometry" />
        </mxCell>
        <mxCell id="ePXV671IeLaIovOnWjoS-6" value="Admin" style="shape=umlActor;verticalLabelPosition=bottom;verticalAlign=top;html=1;outlineConnect=0;" vertex="1" parent="1">
          <mxGeometry x="536" y="-1226" width="30" height="60" as="geometry" />
        </mxCell>
        <mxCell id="LjeAKtY_7-O4ojsEEb1V-12" value="UC1 Registrace noveho clena" style="ellipse;whiteSpace=wrap;html=1;" vertex="1" parent="1">
          <mxGeometry x="808" y="-1360" width="120" height="80" as="geometry" />
        </mxCell>
        <mxCell id="ePXV671IeLaIovOnWjoS-9" value="UC4 Check-in na lekci" style="ellipse;whiteSpace=wrap;html=1;" vertex="1" parent="1">
          <mxGeometry x="800" y="-1844" width="120" height="80" as="geometry" />
        </mxCell>
        <mxCell id="LjeAKtY_7-O4ojsEEb1V-13" value="UC2 Rezervace lekce" style="ellipse;whiteSpace=wrap;html=1;" vertex="1" parent="1">
          <mxGeometry x="800" y="-1937" width="120" height="80" as="geometry" />
        </mxCell>
        <mxCell id="LjeAKtY_7-O4ojsEEb1V-14" value="UC3 Správa tréninkového plánu" style="ellipse;whiteSpace=wrap;html=1;" vertex="1" parent="1">
          <mxGeometry x="808" y="-1458" width="120" height="80" as="geometry" />
        </mxCell>
        <mxCell id="LjeAKtY_7-O4ojsEEb1V-19" value="Member" style="swimlane;fontStyle=0;childLayout=stackLayout;horizontal=1;startSize=26;fillColor=none;horizontalStack=0;resizeParent=1;resizeParentMax=0;resizeLast=0;collapsible=1;marginBottom=0;whiteSpace=wrap;html=1;" vertex="1" parent="1">
          <mxGeometry x="1200" y="-1640" width="140" height="52" as="geometry" />
        </mxCell>
        <mxCell id="LjeAKtY_7-O4ojsEEb1V-27" value="Membership" style="text;strokeColor=none;fillColor=none;align=left;verticalAlign=top;spacingLeft=4;spacingRight=4;overflow=hidden;rotatable=0;points=[[0,0.5],[1,0.5]];portConstraint=eastwest;whiteSpace=wrap;html=1;" vertex="1" parent="LjeAKtY_7-O4ojsEEb1V-19">
          <mxGeometry y="26" width="140" height="26" as="geometry" />
        </mxCell>
        <mxCell id="LjeAKtY_7-O4ojsEEb1V-23" value="Trainer" style="swimlane;fontStyle=0;childLayout=stackLayout;horizontal=1;startSize=26;fillColor=none;horizontalStack=0;resizeParent=1;resizeParentMax=0;resizeLast=0;collapsible=1;marginBottom=0;whiteSpace=wrap;html=1;" vertex="1" parent="1">
          <mxGeometry x="1400" y="-1774" width="140" height="52" as="geometry" />
        </mxCell>
        <mxCell id="ePXV671IeLaIovOnWjoS-10" value="UC5 Platba za clenstvi" style="ellipse;whiteSpace=wrap;html=1;" vertex="1" parent="1">
          <mxGeometry x="800" y="-1658" width="120" height="80" as="geometry" />
        </mxCell>
        <mxCell id="ePXV671IeLaIovOnWjoS-11" value="UC6 Generovani reportu" style="ellipse;whiteSpace=wrap;html=1;" vertex="1" parent="1">
          <mxGeometry x="805" y="-1246" width="120" height="80" as="geometry" />
        </mxCell>
        <mxCell id="LjeAKtY_7-O4ojsEEb1V-28" value="Rezervation" style="swimlane;fontStyle=0;childLayout=stackLayout;horizontal=1;startSize=26;fillColor=none;horizontalStack=0;resizeParent=1;resizeParentMax=0;resizeLast=0;collapsible=1;marginBottom=0;whiteSpace=wrap;html=1;" vertex="1" parent="1">
          <mxGeometry x="1200" y="-1550" width="140" height="104" as="geometry" />
        </mxCell>
        <mxCell id="LjeAKtY_7-O4ojsEEb1V-29" value="ID" style="text;strokeColor=none;fillColor=none;align=left;verticalAlign=top;spacingLeft=4;spacingRight=4;overflow=hidden;rotatable=0;points=[[0,0.5],[1,0.5]];portConstraint=eastwest;whiteSpace=wrap;html=1;" vertex="1" parent="LjeAKtY_7-O4ojsEEb1V-28">
          <mxGeometry y="26" width="140" height="26" as="geometry" />
        </mxCell>
        <mxCell id="LjeAKtY_7-O4ojsEEb1V-30" value="Date" style="text;strokeColor=none;fillColor=none;align=left;verticalAlign=top;spacingLeft=4;spacingRight=4;overflow=hidden;rotatable=0;points=[[0,0.5],[1,0.5]];portConstraint=eastwest;whiteSpace=wrap;html=1;" vertex="1" parent="LjeAKtY_7-O4ojsEEb1V-28">
          <mxGeometry y="52" width="140" height="26" as="geometry" />
        </mxCell>
        <mxCell id="LjeAKtY_7-O4ojsEEb1V-31" value="Status" style="text;strokeColor=none;fillColor=none;align=left;verticalAlign=top;spacingLeft=4;spacingRight=4;overflow=hidden;rotatable=0;points=[[0,0.5],[1,0.5]];portConstraint=eastwest;whiteSpace=wrap;html=1;" vertex="1" parent="LjeAKtY_7-O4ojsEEb1V-28">
          <mxGeometry y="78" width="140" height="26" as="geometry" />
        </mxCell>
        <mxCell id="ePXV671IeLaIovOnWjoS-12" value="UC7 Zobrazeni rozvrhu lekci" style="ellipse;whiteSpace=wrap;html=1;" vertex="1" parent="1">
          <mxGeometry x="800" y="-1570" width="120" height="80" as="geometry" />
        </mxCell>
        <mxCell id="LjeAKtY_7-O4ojsEEb1V-36" value="Membership" style="swimlane;fontStyle=0;childLayout=stackLayout;horizontal=1;startSize=26;fillColor=none;horizontalStack=0;resizeParent=1;resizeParentMax=0;resizeLast=0;collapsible=1;marginBottom=0;whiteSpace=wrap;html=1;" vertex="1" parent="1">
          <mxGeometry x="1020" y="-1653" width="140" height="104" as="geometry" />
        </mxCell>
        <mxCell id="LjeAKtY_7-O4ojsEEb1V-37" value="ID" style="text;strokeColor=none;fillColor=none;align=left;verticalAlign=top;spacingLeft=4;spacingRight=4;overflow=hidden;rotatable=0;points=[[0,0.5],[1,0.5]];portConstraint=eastwest;whiteSpace=wrap;html=1;" vertex="1" parent="LjeAKtY_7-O4ojsEEb1V-36">
          <mxGeometry y="26" width="140" height="26" as="geometry" />
        </mxCell>
        <mxCell id="LjeAKtY_7-O4ojsEEb1V-38" value="Name" style="text;strokeColor=none;fillColor=none;align=left;verticalAlign=top;spacingLeft=4;spacingRight=4;overflow=hidden;rotatable=0;points=[[0,0.5],[1,0.5]];portConstraint=eastwest;whiteSpace=wrap;html=1;" vertex="1" parent="LjeAKtY_7-O4ojsEEb1V-36">
          <mxGeometry y="52" width="140" height="26" as="geometry" />
        </mxCell>
        <mxCell id="LjeAKtY_7-O4ojsEEb1V-39" value="Price" style="text;strokeColor=none;fillColor=none;align=left;verticalAlign=top;spacingLeft=4;spacingRight=4;overflow=hidden;rotatable=0;points=[[0,0.5],[1,0.5]];portConstraint=eastwest;whiteSpace=wrap;html=1;" vertex="1" parent="LjeAKtY_7-O4ojsEEb1V-36">
          <mxGeometry y="78" width="140" height="26" as="geometry" />
        </mxCell>
        <mxCell id="ePXV671IeLaIovOnWjoS-13" value="UC8 Zmena Clenstvi" style="ellipse;whiteSpace=wrap;html=1;" vertex="1" parent="1">
          <mxGeometry x="800" y="-1751" width="120" height="80" as="geometry" />
        </mxCell>
        <mxCell id="LjeAKtY_7-O4ojsEEb1V-40" value="Payment" style="swimlane;fontStyle=0;childLayout=stackLayout;horizontal=1;startSize=26;fillColor=none;horizontalStack=0;resizeParent=1;resizeParentMax=0;resizeLast=0;collapsible=1;marginBottom=0;whiteSpace=wrap;html=1;" vertex="1" parent="1">
          <mxGeometry x="1020" y="-1520" width="140" height="130" as="geometry" />
        </mxCell>
        <mxCell id="LjeAKtY_7-O4ojsEEb1V-41" value="ID" style="text;strokeColor=none;fillColor=none;align=left;verticalAlign=top;spacingLeft=4;spacingRight=4;overflow=hidden;rotatable=0;points=[[0,0.5],[1,0.5]];portConstraint=eastwest;whiteSpace=wrap;html=1;" vertex="1" parent="LjeAKtY_7-O4ojsEEb1V-40">
          <mxGeometry y="26" width="140" height="26" as="geometry" />
        </mxCell>
        <mxCell id="LjeAKtY_7-O4ojsEEb1V-42" value="Amount" style="text;strokeColor=none;fillColor=none;align=left;verticalAlign=top;spacingLeft=4;spacingRight=4;overflow=hidden;rotatable=0;points=[[0,0.5],[1,0.5]];portConstraint=eastwest;whiteSpace=wrap;html=1;" vertex="1" parent="LjeAKtY_7-O4ojsEEb1V-40">
          <mxGeometry y="52" width="140" height="26" as="geometry" />
        </mxCell>
        <mxCell id="LjeAKtY_7-O4ojsEEb1V-43" value="PaymentMethod" style="text;strokeColor=none;fillColor=none;align=left;verticalAlign=top;spacingLeft=4;spacingRight=4;overflow=hidden;rotatable=0;points=[[0,0.5],[1,0.5]];portConstraint=eastwest;whiteSpace=wrap;html=1;" vertex="1" parent="LjeAKtY_7-O4ojsEEb1V-40">
          <mxGeometry y="78" width="140" height="26" as="geometry" />
        </mxCell>
        <mxCell id="LjeAKtY_7-O4ojsEEb1V-44" value="Date" style="text;strokeColor=none;fillColor=none;align=left;verticalAlign=top;spacingLeft=4;spacingRight=4;overflow=hidden;rotatable=0;points=[[0,0.5],[1,0.5]];portConstraint=eastwest;whiteSpace=wrap;html=1;" vertex="1" parent="LjeAKtY_7-O4ojsEEb1V-40">
          <mxGeometry y="104" width="140" height="26" as="geometry" />
        </mxCell>
        <mxCell id="LjeAKtY_7-O4ojsEEb1V-49" value="Person" style="swimlane;fontStyle=0;childLayout=stackLayout;horizontal=1;startSize=26;fillColor=none;horizontalStack=0;resizeParent=1;resizeParentMax=0;resizeLast=0;collapsible=1;marginBottom=0;whiteSpace=wrap;html=1;" vertex="1" parent="1">
          <mxGeometry x="1200" y="-1800" width="140" height="104" as="geometry" />
        </mxCell>
        <mxCell id="LjeAKtY_7-O4ojsEEb1V-50" value="ID" style="text;strokeColor=none;fillColor=none;align=left;verticalAlign=top;spacingLeft=4;spacingRight=4;overflow=hidden;rotatable=0;points=[[0,0.5],[1,0.5]];portConstraint=eastwest;whiteSpace=wrap;html=1;" vertex="1" parent="LjeAKtY_7-O4ojsEEb1V-49">
          <mxGeometry y="26" width="140" height="26" as="geometry" />
        </mxCell>
        <mxCell id="LjeAKtY_7-O4ojsEEb1V-51" value="Name" style="text;strokeColor=none;fillColor=none;align=left;verticalAlign=top;spacingLeft=4;spacingRight=4;overflow=hidden;rotatable=0;points=[[0,0.5],[1,0.5]];portConstraint=eastwest;whiteSpace=wrap;html=1;" vertex="1" parent="LjeAKtY_7-O4ojsEEb1V-49">
          <mxGeometry y="52" width="140" height="26" as="geometry" />
        </mxCell>
        <mxCell id="LjeAKtY_7-O4ojsEEb1V-52" value="Email" style="text;strokeColor=none;fillColor=none;align=left;verticalAlign=top;spacingLeft=4;spacingRight=4;overflow=hidden;rotatable=0;points=[[0,0.5],[1,0.5]];portConstraint=eastwest;whiteSpace=wrap;html=1;" vertex="1" parent="LjeAKtY_7-O4ojsEEb1V-49">
          <mxGeometry y="78" width="140" height="26" as="geometry" />
        </mxCell>
        <mxCell id="LjeAKtY_7-O4ojsEEb1V-53" value="" style="endArrow=block;dashed=1;endFill=0;endSize=12;html=1;rounded=0;fontSize=12;curved=1;" edge="1" parent="1" source="LjeAKtY_7-O4ojsEEb1V-49" target="LjeAKtY_7-O4ojsEEb1V-19">
          <mxGeometry width="160" relative="1" as="geometry">
            <mxPoint x="730" y="-1050" as="sourcePoint" />
            <mxPoint x="890" y="-1050" as="targetPoint" />
          </mxGeometry>
        </mxCell>
        <mxCell id="LjeAKtY_7-O4ojsEEb1V-54" value="" style="endArrow=block;dashed=1;endFill=0;endSize=12;html=1;rounded=0;fontSize=12;curved=1;" edge="1" parent="1" source="LjeAKtY_7-O4ojsEEb1V-49" target="LjeAKtY_7-O4ojsEEb1V-23">
          <mxGeometry width="160" relative="1" as="geometry">
            <mxPoint x="830" y="-1090" as="sourcePoint" />
            <mxPoint x="990" y="-1090" as="targetPoint" />
          </mxGeometry>
        </mxCell>
        <mxCell id="ePXV671IeLaIovOnWjoS-14" value="" style="endArrow=classic;html=1;rounded=0;exitX=1;exitY=0.3333333333333333;exitDx=0;exitDy=0;exitPerimeter=0;entryX=0;entryY=0.5;entryDx=0;entryDy=0;" edge="1" parent="1" source="LjeAKtY_7-O4ojsEEb1V-8" target="LjeAKtY_7-O4ojsEEb1V-13">
          <mxGeometry width="50" height="50" relative="1" as="geometry">
            <mxPoint x="982" y="-1433" as="sourcePoint" />
            <mxPoint x="1032" y="-1483" as="targetPoint" />
          </mxGeometry>
        </mxCell>
        <mxCell id="LjeAKtY_7-O4ojsEEb1V-55" value="Admin" style="swimlane;fontStyle=0;childLayout=stackLayout;horizontal=1;startSize=26;fillColor=none;horizontalStack=0;resizeParent=1;resizeParentMax=0;resizeLast=0;collapsible=1;marginBottom=0;whiteSpace=wrap;html=1;" vertex="1" parent="1">
          <mxGeometry x="1200" y="-1896" width="140" height="52" as="geometry" />
        </mxCell>
        <mxCell id="ePXV671IeLaIovOnWjoS-15" value="" style="endArrow=classic;html=1;rounded=0;exitX=1;exitY=0.3333333333333333;exitDx=0;exitDy=0;exitPerimeter=0;entryX=0;entryY=0.5;entryDx=0;entryDy=0;" edge="1" parent="1" source="ePXV671IeLaIovOnWjoS-5" target="LjeAKtY_7-O4ojsEEb1V-14">
          <mxGeometry width="50" height="50" relative="1" as="geometry">
            <mxPoint x="924" y="-1337" as="sourcePoint" />
            <mxPoint x="974" y="-1387" as="targetPoint" />
          </mxGeometry>
        </mxCell>
        <mxCell id="ePXV671IeLaIovOnWjoS-16" value="" style="endArrow=classic;html=1;rounded=0;exitX=1;exitY=0.3333333333333333;exitDx=0;exitDy=0;exitPerimeter=0;entryX=0;entryY=0.5;entryDx=0;entryDy=0;" edge="1" parent="1" source="LjeAKtY_7-O4ojsEEb1V-8" target="ePXV671IeLaIovOnWjoS-13">
          <mxGeometry width="50" height="50" relative="1" as="geometry">
            <mxPoint x="921" y="-1327" as="sourcePoint" />
            <mxPoint x="971" y="-1377" as="targetPoint" />
          </mxGeometry>
        </mxCell>
        <mxCell id="LjeAKtY_7-O4ojsEEb1V-59" value="" style="endArrow=block;dashed=1;endFill=0;endSize=12;html=1;rounded=0;fontSize=12;curved=1;" edge="1" parent="1" source="LjeAKtY_7-O4ojsEEb1V-49" target="LjeAKtY_7-O4ojsEEb1V-55">
          <mxGeometry width="160" relative="1" as="geometry">
            <mxPoint x="1580" y="-1270" as="sourcePoint" />
            <mxPoint x="1740" y="-1270" as="targetPoint" />
          </mxGeometry>
        </mxCell>
        <mxCell id="LjeAKtY_7-O4ojsEEb1V-60" value="Receptionist" style="swimlane;fontStyle=0;childLayout=stackLayout;horizontal=1;startSize=26;fillColor=none;horizontalStack=0;resizeParent=1;resizeParentMax=0;resizeLast=0;collapsible=1;marginBottom=0;whiteSpace=wrap;html=1;" vertex="1" parent="1">
          <mxGeometry x="1020" y="-1774" width="140" height="52" as="geometry" />
        </mxCell>
        <mxCell id="LjeAKtY_7-O4ojsEEb1V-64" value="" style="endArrow=block;dashed=1;endFill=0;endSize=12;html=1;rounded=0;fontSize=12;curved=1;" edge="1" parent="1" source="LjeAKtY_7-O4ojsEEb1V-49" target="LjeAKtY_7-O4ojsEEb1V-60">
          <mxGeometry width="160" relative="1" as="geometry">
            <mxPoint x="1060" y="-480" as="sourcePoint" />
            <mxPoint x="1220" y="-480" as="targetPoint" />
          </mxGeometry>
        </mxCell>
        <mxCell id="ePXV671IeLaIovOnWjoS-17" value="" style="endArrow=classic;html=1;rounded=0;exitX=1;exitY=0.3333333333333333;exitDx=0;exitDy=0;exitPerimeter=0;entryX=0;entryY=0.5;entryDx=0;entryDy=0;" edge="1" parent="1" source="LjeAKtY_7-O4ojsEEb1V-8" target="ePXV671IeLaIovOnWjoS-12">
          <mxGeometry width="50" height="50" relative="1" as="geometry">
            <mxPoint x="1047" y="-1327" as="sourcePoint" />
            <mxPoint x="1097" y="-1377" as="targetPoint" />
          </mxGeometry>
        </mxCell>
        <mxCell id="ePXV671IeLaIovOnWjoS-18" value="" style="endArrow=classic;html=1;rounded=0;exitX=1;exitY=0.3333333333333333;exitDx=0;exitDy=0;exitPerimeter=0;entryX=0;entryY=0.5;entryDx=0;entryDy=0;" edge="1" parent="1" source="LjeAKtY_7-O4ojsEEb1V-9" target="LjeAKtY_7-O4ojsEEb1V-12">
          <mxGeometry width="50" height="50" relative="1" as="geometry">
            <mxPoint x="1052" y="-1379" as="sourcePoint" />
            <mxPoint x="1102" y="-1429" as="targetPoint" />
          </mxGeometry>
        </mxCell>
        <mxCell id="LjeAKtY_7-O4ojsEEb1V-65" value="" style="endArrow=diamondThin;endFill=0;endSize=24;html=1;rounded=0;fontSize=12;curved=1;" edge="1" parent="1" source="LjeAKtY_7-O4ojsEEb1V-28" target="LjeAKtY_7-O4ojsEEb1V-19">
          <mxGeometry width="160" relative="1" as="geometry">
            <mxPoint x="500" y="-186" as="sourcePoint" />
            <mxPoint x="660" y="-186" as="targetPoint" />
          </mxGeometry>
        </mxCell>
        <mxCell id="LjeAKtY_7-O4ojsEEb1V-66" value="" style="endArrow=diamondThin;endFill=0;endSize=24;html=1;rounded=0;fontSize=12;curved=1;" edge="1" parent="1" source="LjeAKtY_7-O4ojsEEb1V-67" target="LjeAKtY_7-O4ojsEEb1V-23">
          <mxGeometry width="160" relative="1" as="geometry">
            <mxPoint x="950" y="-540" as="sourcePoint" />
            <mxPoint x="980" y="-330" as="targetPoint" />
          </mxGeometry>
        </mxCell>
        <mxCell id="ePXV671IeLaIovOnWjoS-19" value="" style="endArrow=classic;html=1;rounded=0;exitX=1;exitY=0.3333333333333333;exitDx=0;exitDy=0;exitPerimeter=0;entryX=0;entryY=0.5;entryDx=0;entryDy=0;" edge="1" parent="1" source="ePXV671IeLaIovOnWjoS-6" target="ePXV671IeLaIovOnWjoS-11">
          <mxGeometry width="50" height="50" relative="1" as="geometry">
            <mxPoint x="1049" y="-1421" as="sourcePoint" />
            <mxPoint x="1099" y="-1471" as="targetPoint" />
          </mxGeometry>
        </mxCell>
        <mxCell id="ePXV671IeLaIovOnWjoS-20" value="" style="endArrow=classic;html=1;rounded=0;entryX=0;entryY=0.5;entryDx=0;entryDy=0;exitX=1;exitY=0.3333333333333333;exitDx=0;exitDy=0;exitPerimeter=0;" edge="1" parent="1" source="LjeAKtY_7-O4ojsEEb1V-8" target="ePXV671IeLaIovOnWjoS-9">
          <mxGeometry width="50" height="50" relative="1" as="geometry">
            <mxPoint x="571" y="-1626" as="sourcePoint" />
            <mxPoint x="1006" y="-1465" as="targetPoint" />
          </mxGeometry>
        </mxCell>
        <mxCell id="LjeAKtY_7-O4ojsEEb1V-67" value="TrainingPlan" style="swimlane;fontStyle=0;childLayout=stackLayout;horizontal=1;startSize=26;fillColor=none;horizontalStack=0;resizeParent=1;resizeParentMax=0;resizeLast=0;collapsible=1;marginBottom=0;whiteSpace=wrap;html=1;" vertex="1" parent="1">
          <mxGeometry x="1600" y="-1800" width="140" height="104" as="geometry" />
        </mxCell>
        <mxCell id="LjeAKtY_7-O4ojsEEb1V-68" value="ID" style="text;strokeColor=none;fillColor=none;align=left;verticalAlign=top;spacingLeft=4;spacingRight=4;overflow=hidden;rotatable=0;points=[[0,0.5],[1,0.5]];portConstraint=eastwest;whiteSpace=wrap;html=1;" vertex="1" parent="LjeAKtY_7-O4ojsEEb1V-67">
          <mxGeometry y="26" width="140" height="26" as="geometry" />
        </mxCell>
        <mxCell id="LjeAKtY_7-O4ojsEEb1V-69" value="Name" style="text;strokeColor=none;fillColor=none;align=left;verticalAlign=top;spacingLeft=4;spacingRight=4;overflow=hidden;rotatable=0;points=[[0,0.5],[1,0.5]];portConstraint=eastwest;whiteSpace=wrap;html=1;" vertex="1" parent="LjeAKtY_7-O4ojsEEb1V-67">
          <mxGeometry y="52" width="140" height="26" as="geometry" />
        </mxCell>
        <mxCell id="LjeAKtY_7-O4ojsEEb1V-70" value="Duration" style="text;strokeColor=none;fillColor=none;align=left;verticalAlign=top;spacingLeft=4;spacingRight=4;overflow=hidden;rotatable=0;points=[[0,0.5],[1,0.5]];portConstraint=eastwest;whiteSpace=wrap;html=1;" vertex="1" parent="LjeAKtY_7-O4ojsEEb1V-67">
          <mxGeometry y="78" width="140" height="26" as="geometry" />
        </mxCell>
        <mxCell id="ePXV671IeLaIovOnWjoS-21" value="" style="endArrow=classic;html=1;rounded=0;exitX=1;exitY=0.3333333333333333;exitDx=0;exitDy=0;exitPerimeter=0;entryX=0;entryY=0.5;entryDx=0;entryDy=0;" edge="1" parent="1" source="LjeAKtY_7-O4ojsEEb1V-8" target="ePXV671IeLaIovOnWjoS-10">
          <mxGeometry width="50" height="50" relative="1" as="geometry">
            <mxPoint x="865" y="-1578" as="sourcePoint" />
            <mxPoint x="915" y="-1628" as="targetPoint" />
          </mxGeometry>
        </mxCell>
        <mxCell id="LjeAKtY_7-O4ojsEEb1V-71" value="Lesson" style="swimlane;fontStyle=0;childLayout=stackLayout;horizontal=1;startSize=26;fillColor=none;horizontalStack=0;resizeParent=1;resizeParentMax=0;resizeLast=0;collapsible=1;marginBottom=0;whiteSpace=wrap;html=1;" vertex="1" parent="1">
          <mxGeometry x="1400" y="-1549" width="140" height="104" as="geometry" />
        </mxCell>
        <mxCell id="LjeAKtY_7-O4ojsEEb1V-72" value="ID" style="text;strokeColor=none;fillColor=none;align=left;verticalAlign=top;spacingLeft=4;spacingRight=4;overflow=hidden;rotatable=0;points=[[0,0.5],[1,0.5]];portConstraint=eastwest;whiteSpace=wrap;html=1;" vertex="1" parent="LjeAKtY_7-O4ojsEEb1V-71">
          <mxGeometry y="26" width="140" height="26" as="geometry" />
        </mxCell>
        <mxCell id="LjeAKtY_7-O4ojsEEb1V-73" value="Name" style="text;strokeColor=none;fillColor=none;align=left;verticalAlign=top;spacingLeft=4;spacingRight=4;overflow=hidden;rotatable=0;points=[[0,0.5],[1,0.5]];portConstraint=eastwest;whiteSpace=wrap;html=1;" vertex="1" parent="LjeAKtY_7-O4ojsEEb1V-71">
          <mxGeometry y="52" width="140" height="26" as="geometry" />
        </mxCell>
        <mxCell id="LjeAKtY_7-O4ojsEEb1V-74" value="DateTime" style="text;strokeColor=none;fillColor=none;align=left;verticalAlign=top;spacingLeft=4;spacingRight=4;overflow=hidden;rotatable=0;points=[[0,0.5],[1,0.5]];portConstraint=eastwest;whiteSpace=wrap;html=1;" vertex="1" parent="LjeAKtY_7-O4ojsEEb1V-71">
          <mxGeometry y="78" width="140" height="26" as="geometry" />
        </mxCell>
        <mxCell id="LjeAKtY_7-O4ojsEEb1V-75" value="" style="endArrow=diamondThin;endFill=0;endSize=24;html=1;rounded=0;fontSize=12;curved=1;" edge="1" parent="1" source="LjeAKtY_7-O4ojsEEb1V-28" target="LjeAKtY_7-O4ojsEEb1V-71">
          <mxGeometry width="160" relative="1" as="geometry">
            <mxPoint x="856" y="-782" as="sourcePoint" />
            <mxPoint x="1016" y="-782" as="targetPoint" />
          </mxGeometry>
        </mxCell>
        <mxCell id="LjeAKtY_7-O4ojsEEb1V-77" style="edgeStyle=none;curved=1;rounded=0;orthogonalLoop=1;jettySize=auto;html=1;fontSize=12;startSize=8;endSize=8;" edge="1" parent="1" source="LjeAKtY_7-O4ojsEEb1V-27" target="LjeAKtY_7-O4ojsEEb1V-36">
          <mxGeometry relative="1" as="geometry" />
        </mxCell>
        <mxCell id="LjeAKtY_7-O4ojsEEb1V-79" value="" style="endArrow=diamondThin;endFill=0;endSize=24;html=1;rounded=0;fontSize=12;curved=1;" edge="1" parent="1" source="LjeAKtY_7-O4ojsEEb1V-23" target="LjeAKtY_7-O4ojsEEb1V-71">
          <mxGeometry width="160" relative="1" as="geometry">
            <mxPoint x="1120" y="-1230" as="sourcePoint" />
            <mxPoint x="1280" y="-1230" as="targetPoint" />
          </mxGeometry>
        </mxCell>
        <mxCell id="LjeAKtY_7-O4ojsEEb1V-80" value="" style="endArrow=block;startArrow=block;endFill=1;startFill=1;html=1;rounded=0;fontSize=12;startSize=8;endSize=8;curved=1;" edge="1" parent="1" source="LjeAKtY_7-O4ojsEEb1V-39" target="LjeAKtY_7-O4ojsEEb1V-40">
          <mxGeometry width="160" relative="1" as="geometry">
            <mxPoint x="1120" y="-1310" as="sourcePoint" />
            <mxPoint x="1280" y="-1310" as="targetPoint" />
          </mxGeometry>
        </mxCell>
      </root>
    </mxGraphModel>
  </diagram>
</mxfile>
